<?xml version="1.0" encoding="iso-8859-1"?>
<!-- Generator: Adobe Illustrator 19.0.0, SVG Export Plug-In . SVG Version: 6.00 Build 0)  -->
<svg version="1.1" id="Layer_1" xmlns="http://www.w3.org/2000/svg" xmlns:xlink="http://www.w3.org/1999/xlink" x="0px" y="0px"
	 viewBox="0 0 512.015 512.015" style="enable-background:new 0 0 512.015 512.015;" xml:space="preserve">
<g>
	<g>
		<g>
			<path d="M230.4,166.408c-4.719,0-8.533,3.823-8.533,8.533v106.667c0,4.71,3.814,8.533,8.533,8.533h256
				c4.719,0,8.533-3.823,8.533-8.533V174.941c0-4.71-3.814-8.533-8.533-8.533s-8.533,3.823-8.533,8.533v98.133H358.4V162.141
				c0-4.71-3.814-8.533-8.533-8.533H281.6c-4.719,0-8.533,3.823-8.533,8.533v110.933h-34.133v-98.133
				C238.933,170.231,235.119,166.408,230.4,166.408z M290.133,170.674h51.2v42.667H332.8c-4.719,0-8.533,3.823-8.533,8.533
				c0,4.71,3.814,8.533,8.533,8.533h8.533v42.667h-51.2V170.674z"/>
			<path d="M210.065,161.492c1.058,0.435,2.167,0.649,3.268,0.649c2.219,0,4.403-0.87,6.033-2.5L358.426,20.59l139.008,139.051
				c2.449,2.449,6.118,3.183,9.301,1.852c3.183-1.323,5.265-4.437,5.265-7.885v-128c0-4.71-3.814-8.533-8.533-8.533h-85.333
				c-4.719,0-8.533,3.823-8.533,8.533c0,4.71,3.814,8.533,8.533,8.533h76.8V133L364.484,2.508c-3.2-3.2-8.917-3.2-12.117,0
				l-130.5,130.5V34.141h42.667c4.719,0,8.533-3.823,8.533-8.533v-8.533h17.067v8.533c0,4.71,3.814,8.533,8.533,8.533
				s8.533-3.823,8.533-8.533V8.541c0-4.71-3.814-8.533-8.533-8.533h-34.133c-4.719,0-8.533,3.823-8.533,8.533v8.533h-42.667
				c-4.719,0-8.533,3.823-8.533,8.533v128C204.8,157.055,206.874,160.17,210.065,161.492z"/>
			<path d="M435.2,238.941c4.719,0,8.533-3.823,8.533-8.533v-68.267c0-4.71-3.814-8.533-8.533-8.533H384
				c-4.719,0-8.533,3.823-8.533,8.533v68.267c0,4.71,3.814,8.533,8.533,8.533H435.2z M392.533,170.674h34.133v51.2h-34.133V170.674z
				"/>
			<path d="M42.667,456.541c0-7.057-5.743-12.8-12.8-12.8c-7.057,0-12.8,5.743-12.8,12.8c0,7.057,5.743,12.8,12.8,12.8
				C36.924,469.341,42.667,463.598,42.667,456.541z"/>
			<path d="M507.426,358.408c-9.412-16.307-30.362-21.888-46.089-12.774l-98.219,47.804c-15.266,7.637-30.677,7.637-64.452,7.637
				c-33.015,0-83.422-8.337-83.934-8.414c-4.642-0.768-9.045,2.364-9.813,7.006c-0.777,4.651,2.364,9.054,7.014,9.822
				c2.116,0.358,52.292,8.653,86.733,8.653c35.43,0,53.214,0,72.004-9.395l98.662-48.051c3.942-2.278,8.533-2.884,12.954-1.707
				c4.395,1.186,8.081,4.011,10.351,7.953c2.287,3.951,2.893,8.55,1.715,12.954s-4.002,8.081-8.192,10.505l-115.379,71.808
				c-0.239,0.162-24.858,15.667-80.648,15.667c-48.375,0-123.11-41.182-124.186-41.771c-0.777-0.375-19.277-9.429-55.014-9.429
				c-4.719,0-8.533,3.823-8.533,8.533s3.814,8.533,8.533,8.533c31.036,0,47.027,7.467,47.061,7.467v-0.009
				c3.226,1.792,79.334,43.742,132.139,43.742c61.611,0,88.934-17.749,89.839-18.355l114.961-71.552
				c7.893-4.557,13.542-11.921,15.898-20.719C513.203,375.5,511.983,366.301,507.426,358.408z"/>
			<path d="M110.933,324.274H179.2c9.958,0,26.88,12.698,41.813,23.893c18.722,14.046,36.412,27.307,52.053,27.307h51.2
				c12.962,0,19.396,5.879,19.567,6.033c1.664,1.664,3.849,2.5,6.033,2.5c2.185,0,4.369-0.836,6.033-2.5
				c3.336-3.337,3.336-8.73,0-12.066c-1.126-1.126-11.605-11.034-31.633-11.034h-51.2c-9.958,0-26.88-12.698-41.813-23.893
				c-18.722-14.046-36.412-27.307-52.053-27.307h-68.267c-4.719,0-8.533,3.823-8.533,8.533S106.214,324.274,110.933,324.274z"/>
			<path d="M59.733,273.074h-51.2c-4.719,0-8.533,3.823-8.533,8.533s3.814,8.533,8.533,8.533h51.2c4.71,0,8.533,3.831,8.533,8.533
				v187.733c0,4.702-3.823,8.533-8.533,8.533h-51.2c-4.719,0-8.533,3.823-8.533,8.533s3.814,8.533,8.533,8.533h51.2
				c14.114,0,25.6-11.486,25.6-25.6V298.674C85.333,284.56,73.847,273.074,59.733,273.074z"/>
		</g>
	</g>
</g>
<g>
</g>
<g>
</g>
<g>
</g>
<g>
</g>
<g>
</g>
<g>
</g>
<g>
</g>
<g>
</g>
<g>
</g>
<g>
</g>
<g>
</g>
<g>
</g>
<g>
</g>
<g>
</g>
<g>
</g>
</svg>
