<?xml version="1.0" encoding="iso-8859-1"?>
<!-- Generator: Adobe Illustrator 19.0.0, SVG Export Plug-In . SVG Version: 6.00 Build 0)  -->
<svg version="1.1" id="Capa_1" xmlns="http://www.w3.org/2000/svg" xmlns:xlink="http://www.w3.org/1999/xlink" x="0px" y="0px"
	 viewBox="0 0 512 512" style="enable-background:new 0 0 512 512;" xml:space="preserve">
<g>
	<g>
		<path d="M484.049,385.064c-11.037-15.062-27.29-24.85-45.765-27.56c-18.478-2.711-36.854,1.999-51.75,13.256l-63.547,48.024
			h-54.482c4.752-6.488,7.205-14.318,6.979-22.52c-0.536-19.564-17.174-35.48-37.089-35.48h-86.74
			c-29.142,0-57.423,12.064-77.592,33.099l-8.264,8.617H0v15h72.199l12.691-13.235c17.355-18.1,41.69-28.48,66.766-28.48h86.74
			c11.867,0,21.779,9.372,22.095,20.891c0.161,5.865-1.998,11.405-6.079,15.6c-4.084,4.198-9.558,6.509-15.412,6.509h-79v15h168.02
			v-0.001l67.559-51.057c11.668-8.817,26.063-12.503,40.53-10.382c12.018,1.763,22.834,7.349,31.107,15.95L329.464,493.5H0v15
			h334.536l153.859-117.505L484.049,385.064z"/>
	</g>
</g>
<g>
	<g>
		<path d="M512,18.5v-15H177.464L23.604,121.005l4.346,5.931c11.037,15.062,27.29,24.85,45.765,27.56
			c3.412,0.5,6.819,0.748,10.203,0.748c14.939,0,29.401-4.825,41.547-14.004l63.547-48.024h54.482
			c-4.752,6.488-7.205,14.318-6.979,22.52c0.536,19.564,17.174,35.48,37.089,35.48h86.74c29.142,0,57.423-12.064,77.592-33.099
			l8.264-8.617H512v-15h-72.199l-12.691,13.235c-17.355,18.1-41.69,28.48-66.766,28.48h-86.74c-11.867,0-21.779-9.372-22.095-20.891
			c-0.161-5.865,1.998-11.405,6.079-15.6c4.084-4.198,9.558-6.509,15.412-6.509h79v-15H183.98l-67.559,51.057
			c-11.668,8.816-26.063,12.502-40.53,10.382c-12.018-1.763-22.834-7.349-31.107-15.95L182.536,18.5H512z"/>
	</g>
</g>
<g>
	<g>
		<path d="M256,243.596c-31.318,0-56.538,38.258-56.538,69.933c0,15.667,6.425,26.106,19.096,31.028
			c10.15,3.942,23.282,3.973,37.236,3.942h0.412c0.068,0,0.136,0,0.204,0c13.854,0,26.932-0.019,37.032-3.942
			c12.671-4.922,19.096-15.362,19.096-31.028C312.538,281.853,287.318,243.596,256,243.596z M288.011,330.575
			c-7.495,2.912-19.211,2.925-31.631,2.925c-0.058,0-0.116,0-0.174,0h-0.412c-0.058,0-0.115,0-0.174,0
			c-12.419,0-24.136-0.013-31.631-2.925c-4.948-1.922-9.527-5.317-9.527-17.046c0-24.214,19.558-54.933,41.538-54.933
			c21.98,0,41.538,30.719,41.538,54.933C297.538,325.258,292.959,328.653,288.011,330.575z"/>
	</g>
</g>
<g>
	<g>
		<path d="M219.778,163.5c-15.663,0-27.933,15.859-27.933,36.106c0,20.246,12.27,36.105,27.933,36.105
			c15.663,0,27.933-15.859,27.933-36.105C247.711,179.359,235.441,163.5,219.778,163.5z M219.778,220.711
			c-6.89,0-12.933-9.862-12.933-21.105c0-11.243,6.043-21.106,12.933-21.106s12.933,9.863,12.933,21.106
			C232.711,210.849,226.668,220.711,219.778,220.711z"/>
	</g>
</g>
<g>
	<g>
		<path d="M196.721,253.953c-1.443-7.215-5.51-14.46-11.448-20.399c-5.939-5.94-13.183-10.005-20.399-11.449
			c-8.195-1.639-15.779,0.302-20.806,5.328c-5.025,5.025-6.968,12.609-5.328,20.806c1.442,7.215,5.508,14.46,11.447,20.399
			c7.89,7.89,17.485,12.039,26.038,12.038c5.831,0,11.18-1.93,15.167-5.917C196.418,269.733,198.361,262.15,196.721,253.953z
			 M180.786,264.152c-3.272,3.273-12.519,1.353-19.992-6.12c-3.812-3.813-6.489-8.454-7.345-12.734
			c-0.303-1.511-0.788-5.244,1.227-7.258c1.186-1.187,2.969-1.505,4.542-1.505c1.098,0,2.094,0.155,2.715,0.279
			c4.28,0.856,8.922,3.534,12.733,7.346h0.001c3.812,3.813,6.489,8.454,7.346,12.734
			C182.315,258.406,182.801,262.138,180.786,264.152z"/>
	</g>
</g>
<g>
	<g>
		<path d="M367.931,227.433c-5.025-5.026-12.611-6.967-20.806-5.328c-7.216,1.443-14.46,5.509-20.399,11.448h0.001
			c-5.939,5.939-10.006,13.184-11.449,20.399c-1.639,8.197,0.303,15.781,5.328,20.806c3.989,3.989,9.336,5.918,15.168,5.918
			c8.553,0,18.148-4.149,26.037-12.038c5.94-5.939,10.006-13.184,11.448-20.399C374.899,240.042,372.956,232.458,367.931,227.433z
			 M358.551,245.299c-0.855,4.28-3.533,8.921-7.346,12.734c-7.471,7.471-16.715,9.396-19.992,6.119
			c-2.014-2.014-1.528-5.746-1.226-7.257c0.856-4.28,3.534-8.922,7.346-12.734h0.001c3.812-3.813,8.453-6.49,12.733-7.346
			c0.621-0.124,1.617-0.279,2.715-0.279c1.573,0,3.356,0.319,4.542,1.505C359.339,240.055,358.853,243.788,358.551,245.299z"/>
	</g>
</g>
<g>
	<g>
		<path d="M292.222,163.5c-15.663,0-27.933,15.859-27.933,36.106c0,20.246,12.27,36.105,27.933,36.105s27.933-15.859,27.933-36.105
			C320.154,179.359,307.885,163.5,292.222,163.5z M292.222,220.711c-6.89,0-12.933-9.862-12.933-21.105
			c0-11.243,6.043-21.106,12.933-21.106s12.933,9.863,12.933,21.106C305.155,210.849,299.111,220.711,292.222,220.711z"/>
	</g>
</g>
<g>
	<g>
		<path d="M83.5,255.999c-0.001-6.012,0.313-12.079,0.936-18.032l-14.92-1.558c-0.675,6.47-1.017,13.061-1.016,19.591
			c0,24.492,4.675,48.327,13.896,70.842l13.881-5.685C87.799,300.455,83.5,278.533,83.5,255.999z"/>
	</g>
</g>
<g>
	<g>
		<path d="M75.342,205.739c-1.392,4.995-2.588,10.115-3.557,15.214l14.736,2.799c0.891-4.689,1.991-9.396,3.27-13.989
			L75.342,205.739z"/>
	</g>
</g>
<g>
	<g>
		<path d="M86.214,176.473c-2.21,4.698-4.245,9.545-6.05,14.404l14.061,5.223c1.66-4.468,3.531-8.924,5.563-13.245L86.214,176.473z"
			/>
	</g>
</g>
<g>
	<g>
		<path d="M105.067,210.853c-1.495,5.006-2.754,10.153-3.741,15.296l14.73,2.828c0.894-4.651,2.032-9.304,3.384-13.83
			L105.067,210.853z"/>
	</g>
</g>
<g>
	<g>
		<path d="M113.5,256c0-4.31,0.194-8.656,0.577-12.918l-14.939-1.343C98.715,246.445,98.5,251.244,98.5,256
			c0,29.842,8.386,58.891,24.25,84.005l12.682-8.011C121.084,309.281,113.5,283.002,113.5,256z"/>
	</g>
</g>
<g>
	<g>
		<path d="M429.604,185.158l-13.881,5.685c8.478,20.703,12.776,42.625,12.776,65.159c0.001,6.012-0.313,12.079-0.936,18.032
			l14.92,1.558c0.676-6.471,1.018-13.062,1.017-19.592C443.5,231.508,438.825,207.673,429.604,185.158z"/>
	</g>
</g>
<g>
	<g>
		<path d="M417.775,315.9c-1.66,4.468-3.531,8.924-5.563,13.245l13.575,6.382c2.209-4.699,4.244-9.545,6.049-14.404L417.775,315.9z"
			/>
	</g>
</g>
<g>
	<g>
		<path d="M425.479,288.248c-0.891,4.69-1.992,9.396-3.27,13.989l14.449,4.024c1.392-4.996,2.588-10.115,3.557-15.214
			L425.479,288.248z"/>
	</g>
</g>
<g>
	<g>
		<path d="M389.25,171.995l-12.682,8.01C390.916,202.719,398.5,228.998,398.5,256c0,4.31-0.194,8.656-0.577,12.918l14.939,1.343
			c0.423-4.706,0.638-9.504,0.638-14.261C413.5,226.158,405.114,197.109,389.25,171.995z"/>
	</g>
</g>
<g>
	<g>
		<path d="M395.944,283.023c-0.894,4.651-2.032,9.304-3.384,13.83l14.373,4.294c1.495-5.006,2.754-10.153,3.741-15.296
			L395.944,283.023z"/>
	</g>
</g>
<g>
	<g>
		<rect x="33.5" y="218.5" width="15" height="15"/>
	</g>
</g>
<g>
	<g>
		<rect x="33.5" y="248.5" width="15" height="15"/>
	</g>
</g>
<g>
	<g>
		<rect x="33.5" y="278.5" width="15" height="15"/>
	</g>
</g>
<g>
	<g>
		<rect x="463.5" y="218.5" width="15" height="15"/>
	</g>
</g>
<g>
	<g>
		<rect x="463.5" y="278.5" width="15" height="15"/>
	</g>
</g>
<g>
	<g>
		<rect x="463.5" y="248.5" width="15" height="15"/>
	</g>
</g>
<g>
	<g>
		<g>
			<rect x="381.816" y="405.137" transform="matrix(0.7947 -0.607 0.607 0.7947 -168.7021 326.4419)" width="32.914" height="15"/>
			<rect x="359.813" y="428.783" transform="matrix(-0.607 -0.7947 0.7947 -0.607 243.549 993.0084)" width="15" height="15"/>
		</g>
	</g>
</g>
<g>
	<g>
		<g>
			<rect x="196" y="463.5" width="40" height="15"/>
			<rect x="166" y="463.5" width="15" height="15"/>
		</g>
	</g>
</g>
<g>
	<g>
		<g>
			<rect x="16" y="432.5" width="15" height="15"/>
			<rect x="46" y="432.5" width="29" height="15"/>
		</g>
	</g>
</g>
<g>
	<g>
		<g>
			<path d="M95.718,414.646l10.828,10.381c3.071-3.204,6.513-6.091,10.231-8.584l-8.354-12.459
				C103.811,407.077,99.535,410.664,95.718,414.646z"/>
			<path d="M151.656,390.784c-0.001,0-0.002,0-0.004,0c-9.783,0-19.396,1.847-28.57,5.491l5.537,13.94
				c7.404-2.94,15.153-4.431,23.033-4.431c0.001,0,0.003,0,0.004,0H188v-15H151.656z"/>
		</g>
	</g>
</g>
<g>
	<g>
		<path d="M272.485,285.25c-5.898-8.079-13.094-10.898-13.895-11.192l-5.18,14.077l-0.106-0.041c0.038,0.016,3.85,1.595,7.065,5.999
			c4.221,5.784,7.169,13.776,7.169,19.436h15C282.538,304.718,278.592,293.618,272.485,285.25z"/>
	</g>
</g>
<g>
	<g>
		<g>
			<rect x="137.187" y="68.217" transform="matrix(0.7947 -0.6069 0.6069 0.7947 -16.2586 103.358)" width="15" height="15"/>
			
				<rect x="106.226" y="82.906" transform="matrix(-0.6069 -0.7947 0.7947 -0.6069 103.7823 250.0547)" width="15" height="32.914"/>
		</g>
	</g>
</g>
<g>
	<g>
		<g>
			<rect x="276" y="33.5" width="40" height="15"/>
			<rect x="331" y="33.5" width="15" height="15"/>
		</g>
	</g>
</g>
<g>
	<g>
		<g>
			<rect x="437" y="64.5" width="29" height="15"/>
			<rect x="481" y="64.5" width="15" height="15"/>
		</g>
	</g>
</g>
<g>
	<g>
		<g>
			<path d="M405.453,86.974c-3.071,3.203-6.512,6.091-10.23,8.583l8.354,12.459c4.612-3.093,8.888-6.68,12.704-10.661
				L405.453,86.974z"/>
			<path d="M360.348,106.216c-0.001,0-0.003,0-0.004,0H324v15h36.344c0.001,0,0.002,0,0.004,0c9.783,0,19.396-1.847,28.57-5.491
				l-5.537-13.94C375.977,104.725,368.228,106.216,360.348,106.216z"/>
		</g>
	</g>
</g>
<g>
</g>
<g>
</g>
<g>
</g>
<g>
</g>
<g>
</g>
<g>
</g>
<g>
</g>
<g>
</g>
<g>
</g>
<g>
</g>
<g>
</g>
<g>
</g>
<g>
</g>
<g>
</g>
<g>
</g>
</svg>
